<svg width="1778" height="542" viewBox="0 0 1778 542" fill="none" xmlns="http://www.w3.org/2000/svg">
<g clip-path="url(#clip0_546_3395)">
<path d="M498.544 538.828C498.544 518.946 482.421 503.835 466.606 494.3C442.813 479.955 414.569 473.319 387.205 470.356C375.05 469.04 362.875 468.734 350.662 468.734C340.227 468.734 329.801 468.663 319.381 469.346C290.78 471.221 261.483 477.023 235.793 490.163C226.138 495.101 216.803 501.275 209.387 509.261C203.33 515.783 198.395 523.781 196.942 532.68C196.61 534.713 196.4 536.768 196.4 538.829C196.4 542.69 202.4 542.696 202.4 538.829C202.4 537.932 202.437 537.034 202.51 536.14C202.548 535.673 202.597 535.207 202.654 534.742C202.563 535.486 202.67 534.637 202.688 534.528C202.744 534.192 202.798 533.855 202.86 533.52C203.223 531.577 203.756 529.667 204.438 527.811C204.589 527.401 204.747 526.995 204.911 526.591C205.238 525.782 204.663 527.137 205.019 526.337C205.127 526.095 205.235 525.853 205.346 525.612C205.798 524.637 206.289 523.681 206.814 522.744C207.86 520.88 209.044 519.098 210.326 517.388C210.891 516.635 209.973 517.828 210.559 517.084C210.679 516.932 210.799 516.781 210.92 516.631C211.287 516.175 211.661 515.725 212.042 515.281C212.821 514.372 213.629 513.487 214.46 512.625C216.128 510.896 217.892 509.261 219.726 507.71C223.52 504.5 227.799 501.58 232.298 498.926C242.961 492.635 254.55 488.05 266.397 484.529C280.198 480.427 294.423 477.748 308.737 476.251C320.562 475.014 332.404 474.735 344.282 474.735C354.373 474.735 364.457 474.659 374.535 475.282C389.519 476.208 404.434 478.339 419.015 481.941C431.423 485.006 443.656 489.098 455.1 494.828C464.619 499.595 473.408 505.223 480.692 512.845C483.838 516.137 486.02 518.928 488.26 522.982C490.154 526.408 491.369 529.528 492.129 533.772C492.171 534.004 492.375 535.442 492.29 534.743C492.342 535.166 492.387 535.589 492.423 536.014C492.503 536.951 492.543 537.891 492.543 538.831C492.543 542.692 498.543 542.698 498.543 538.831L498.544 538.828Z" fill="#1D1D1B"/>
<path d="M815.511 538.828C815.511 518.946 799.388 503.835 783.573 494.3C759.78 479.955 731.536 473.319 704.172 470.356C692.017 469.04 679.842 468.734 667.629 468.734C657.194 468.734 646.768 468.663 636.348 469.346C607.747 471.221 578.45 477.023 552.76 490.163C543.105 495.101 533.77 501.275 526.354 509.261C520.297 515.783 515.362 523.781 513.909 532.68C513.577 534.713 513.367 536.768 513.367 538.829C513.367 542.69 519.367 542.696 519.367 538.829C519.367 537.932 519.404 537.034 519.477 536.14C519.515 535.673 519.564 535.207 519.621 534.742C519.53 535.486 519.637 534.637 519.655 534.528C519.711 534.192 519.765 533.855 519.827 533.52C520.19 531.577 520.723 529.667 521.405 527.811C521.556 527.401 521.714 526.995 521.878 526.591C522.205 525.782 521.63 527.137 521.986 526.337C522.094 526.095 522.202 525.853 522.313 525.612C522.765 524.637 523.256 523.681 523.781 522.744C524.827 520.88 526.011 519.098 527.293 517.388C527.858 516.635 526.94 517.828 527.526 517.084C527.646 516.932 527.766 516.781 527.887 516.631C528.254 516.175 528.628 515.725 529.009 515.281C529.788 514.372 530.596 513.487 531.427 512.625C533.095 510.896 534.859 509.261 536.693 507.71C540.487 504.5 544.766 501.58 549.265 498.926C559.928 492.635 571.517 488.05 583.364 484.529C597.165 480.427 611.39 477.748 625.704 476.251C637.529 475.014 649.371 474.735 661.249 474.735C671.34 474.735 681.424 474.659 691.502 475.282C706.486 476.208 721.401 478.339 735.982 481.941C748.39 485.006 760.623 489.098 772.067 494.828C781.586 499.595 790.375 505.223 797.659 512.845C800.805 516.137 802.987 518.928 805.227 522.982C807.121 526.408 808.336 529.528 809.096 533.772C809.138 534.004 809.342 535.442 809.257 534.743C809.309 535.166 809.354 535.589 809.39 536.014C809.47 536.951 809.51 537.891 809.51 538.831C809.51 542.692 815.51 542.698 815.51 538.831L815.511 538.828Z" fill="#1D1D1B"/>
<path d="M1132.48 538.828C1132.48 518.946 1116.35 503.835 1100.54 494.3C1076.75 479.955 1048.5 473.319 1021.14 470.356C1008.98 469.04 996.808 468.734 984.595 468.734C974.16 468.734 963.734 468.663 953.314 469.346C924.713 471.221 895.416 477.023 869.726 490.163C860.071 495.101 850.736 501.275 843.32 509.261C837.263 515.783 832.328 523.781 830.875 532.68C830.543 534.713 830.333 536.768 830.333 538.829C830.333 542.69 836.333 542.696 836.333 538.829C836.333 537.932 836.37 537.034 836.443 536.14C836.481 535.673 836.53 535.207 836.587 534.742C836.496 535.486 836.603 534.637 836.621 534.528C836.677 534.192 836.731 533.855 836.793 533.52C837.156 531.577 837.689 529.667 838.371 527.811C838.522 527.401 838.68 526.995 838.844 526.591C839.171 525.782 838.596 527.137 838.952 526.337C839.06 526.095 839.168 525.853 839.279 525.612C839.731 524.637 840.222 523.681 840.747 522.744C841.793 520.88 842.977 519.098 844.259 517.388C844.824 516.635 843.906 517.828 844.492 517.084C844.612 516.932 844.732 516.781 844.853 516.631C845.22 516.175 845.594 515.725 845.975 515.281C846.754 514.372 847.562 513.487 848.393 512.625C850.061 510.896 851.825 509.261 853.659 507.71C857.453 504.5 861.732 501.58 866.231 498.926C876.894 492.635 888.483 488.05 900.33 484.529C914.131 480.427 928.356 477.748 942.67 476.251C954.495 475.014 966.337 474.735 978.215 474.735C988.306 474.735 998.39 474.659 1008.47 475.282C1023.45 476.208 1038.37 478.339 1052.95 481.941C1065.36 485.006 1077.59 489.098 1089.03 494.828C1098.55 499.595 1107.34 505.223 1114.62 512.845C1117.77 516.137 1119.95 518.928 1122.19 522.982C1124.09 526.408 1125.3 529.528 1126.06 533.772C1126.1 534.004 1126.31 535.442 1126.22 534.743C1126.28 535.166 1126.32 535.589 1126.36 536.014C1126.44 536.951 1126.48 537.891 1126.48 538.831C1126.48 542.692 1132.48 542.698 1132.48 538.831L1132.48 538.828Z" fill="#1D1D1B"/>
<path d="M1449.44 538.828C1449.44 518.946 1433.32 503.835 1417.51 494.3C1393.71 479.955 1365.47 473.319 1338.1 470.356C1325.95 469.04 1313.77 468.734 1301.56 468.734C1291.13 468.734 1280.7 468.663 1270.28 469.346C1241.68 471.221 1212.38 477.023 1186.69 490.163C1177.04 495.101 1167.7 501.275 1160.29 509.261C1154.23 515.783 1149.29 523.781 1147.84 532.68C1147.51 534.713 1147.3 536.768 1147.3 538.829C1147.3 542.69 1153.3 542.696 1153.3 538.829C1153.3 537.932 1153.34 537.034 1153.41 536.14C1153.45 535.673 1153.5 535.207 1153.55 534.742C1153.46 535.486 1153.57 534.637 1153.59 534.528C1153.64 534.192 1153.7 533.855 1153.76 533.52C1154.12 531.577 1154.66 529.667 1155.34 527.811C1155.49 527.401 1155.65 526.995 1155.81 526.591C1156.14 525.782 1155.56 527.137 1155.92 526.337C1156.03 526.095 1156.13 525.853 1156.25 525.612C1156.7 524.637 1157.19 523.681 1157.71 522.744C1158.76 520.88 1159.94 519.098 1161.23 517.388C1161.79 516.635 1160.87 517.828 1161.46 517.084C1161.58 516.932 1161.7 516.781 1161.82 516.631C1162.19 516.175 1162.56 515.725 1162.94 515.281C1163.72 514.372 1164.53 513.487 1165.36 512.625C1167.03 510.896 1168.79 509.261 1170.63 507.71C1174.42 504.5 1178.7 501.58 1183.2 498.926C1193.86 492.635 1205.45 488.05 1217.3 484.529C1231.1 480.427 1245.32 477.748 1259.64 476.251C1271.46 475.014 1283.3 474.735 1295.18 474.735C1305.27 474.735 1315.36 474.659 1325.43 475.282C1340.42 476.208 1355.33 478.339 1369.91 481.941C1382.32 485.006 1394.56 489.098 1406 494.828C1415.52 499.595 1424.31 505.223 1431.59 512.845C1434.74 516.137 1436.92 518.928 1439.16 522.982C1441.05 526.408 1442.27 529.528 1443.03 533.772C1443.07 534.004 1443.27 535.442 1443.19 534.743C1443.24 535.166 1443.29 535.589 1443.32 536.014C1443.4 536.951 1443.44 537.891 1443.44 538.831C1443.44 542.692 1449.44 542.698 1449.44 538.831L1449.44 538.828Z" fill="#1D1D1B"/>
<path d="M187.473 446.969H1406.78C1423.25 446.969 1439.74 447.233 1456.21 446.969C1456.93 446.957 1457.65 446.969 1458.37 446.969C1462.23 446.969 1462.24 440.969 1458.37 440.969H239.063C222.595 440.969 206.101 440.705 189.635 440.969C188.915 440.981 188.194 440.969 187.474 440.969C183.613 440.969 183.607 446.969 187.474 446.969H187.473Z" fill="#1D1D1B"/>
<path d="M503.712 154.766V165.109V193.003C503.712 193.003 503.712 220.574 503.712 234.359V523.238C503.712 528.214 503.62 533.2 503.712 538.175C503.716 538.393 503.712 538.61 503.712 538.828C503.712 542.689 509.712 542.695 509.712 538.828V528.485C509.712 519.187 509.712 509.889 509.712 500.591C509.712 491.293 509.712 473.02 509.712 459.235V353.709C509.712 335.053 509.712 316.398 509.712 297.742C509.712 279.086 509.712 263.19 509.712 245.914V170.357C509.712 165.381 509.804 160.395 509.712 155.42C509.708 155.202 509.712 154.985 509.712 154.767C509.712 150.906 503.712 150.9 503.712 154.767V154.766Z" fill="#1D1D1B"/>
<path d="M1139.96 154.766V523.238C1139.96 528.214 1139.87 533.2 1139.96 538.175C1139.96 538.393 1139.96 538.61 1139.96 538.828C1139.96 542.689 1145.96 542.695 1145.96 538.828V353.709C1145.96 335.053 1145.96 316.398 1145.96 297.742C1145.96 279.086 1145.96 263.19 1145.96 245.914V170.357C1145.96 165.381 1146.05 160.395 1145.96 155.42C1145.95 155.202 1145.96 154.985 1145.96 154.767C1145.96 150.906 1139.96 150.9 1139.96 154.767V154.766Z" fill="#1D1D1B"/>
<path d="M504.679 205.473C516.307 218.205 527.859 230.975 540.397 242.834C559.399 260.807 580.025 277.099 601.964 291.343C644.818 319.165 692.864 339.08 742.995 349.092C788.172 358.114 835.726 359.376 881.395 353.281C931.916 346.538 980.888 329.896 1025.29 304.901C1047.91 292.169 1069.3 277.287 1089.21 260.652C1106.56 246.168 1122.38 230.211 1137.6 213.546C1139.35 211.626 1141.1 209.707 1142.86 207.787C1145.46 204.941 1141.22 200.686 1138.61 203.544C1126.29 217.039 1113.94 230.445 1100.47 242.829C1081.37 260.386 1060.7 276.206 1038.7 289.96C995.94 316.693 948.359 335.453 898.728 344.516C875.444 348.768 851.845 350.738 828.183 350.738C806.059 350.738 784.073 349.742 762.172 346.401C712.198 338.778 663.963 321.349 620.422 295.708C598.295 282.678 577.399 267.595 558.029 250.739C542.242 237.002 527.858 221.962 513.764 206.53C512.15 204.763 510.537 202.996 508.923 201.23C506.313 198.373 502.08 202.625 504.68 205.473H504.679Z" fill="#1D1D1B"/>
<path d="M1463.49 438.655C1453.48 438.655 1443.49 438.646 1433.5 437.82C1420.83 436.772 1408.25 434.696 1395.89 431.705C1369.97 425.435 1345.19 415.136 1322.08 401.889C1296.9 387.453 1273.78 369.645 1252.71 349.719C1229.23 327.51 1208.24 302.725 1189.49 276.421C1173.82 254.439 1160.14 231.283 1146.68 207.921C1146.21 207.115 1145.75 206.31 1145.28 205.504C1143.35 202.16 1138.17 205.178 1140.1 208.532C1152.13 229.407 1164.18 250.229 1177.8 270.129C1196.47 297.4 1217.35 323.251 1240.82 346.549C1261.99 367.564 1285.33 386.55 1310.77 402.157C1333.95 416.372 1358.98 427.761 1385.18 435.112C1397.85 438.667 1410.78 441.233 1423.85 442.831C1435.29 444.232 1446.76 444.656 1458.28 444.656H1463.49C1467.35 444.656 1467.35 438.656 1463.49 438.656L1463.49 438.655Z" fill="#1D1D1B"/>
<path d="M182.356 444.655C192.502 444.655 202.622 444.64 212.743 443.787C225.813 442.685 238.806 440.576 251.554 437.491C277.796 431.141 302.991 420.671 326.41 407.286C352.02 392.649 375.587 374.518 397.022 354.292C420.76 331.893 441.926 306.848 460.907 280.324C471.202 265.938 480.845 251.09 489.894 235.891C494.771 227.699 499.476 219.403 504.237 211.144C504.739 210.274 505.24 209.403 505.742 208.533C507.674 205.182 502.491 202.157 500.561 205.505C488.711 226.065 476.857 246.579 463.476 266.202C445.026 293.258 424.353 318.853 401.124 341.964C380.314 362.667 357.44 381.354 332.415 396.748C309.545 410.815 284.943 422.069 259.066 429.328C246.793 432.771 234.253 435.354 221.595 436.882C210.172 438.261 198.735 438.658 187.241 438.658H182.356C178.495 438.658 178.489 444.658 182.356 444.658V444.655Z" fill="#1D1D1B"/>
<path d="M562.296 258.169V296.175V320.27C562.296 320.27 562.296 337.865 562.296 346.662V434.162C562.296 436.552 562.231 438.951 562.296 441.34C562.299 441.444 562.296 441.549 562.296 441.654C562.296 443.584 565.296 443.588 565.296 441.654V265.66C565.296 263.27 565.361 260.871 565.296 258.482C565.293 258.378 565.296 258.273 565.296 258.168C565.296 256.238 562.296 256.234 562.296 258.168V258.169Z" fill="#1D1D1B"/>
<path d="M627.077 304.524V350.954V390.538C627.077 390.538 627.077 413.41 627.077 424.846C627.077 430.356 626.878 435.909 627.077 441.417C627.08 441.496 627.077 441.576 627.077 441.656C627.077 443.586 630.077 443.59 630.077 441.656V395.226C630.077 382.031 630.077 368.837 630.077 355.642C630.077 344.206 630.077 332.77 630.077 321.334C630.077 315.824 630.276 310.271 630.077 304.763C630.074 304.684 630.077 304.604 630.077 304.524C630.077 302.594 627.077 302.59 627.077 304.524Z" fill="#1D1D1B"/>
<path d="M691.859 335.228V345.852V371.233V428.567C691.859 432.854 691.678 437.185 691.859 441.469C691.862 441.53 691.859 441.592 691.859 441.654C691.859 443.584 694.859 443.588 694.859 441.654V431.03C694.859 422.57 694.859 414.109 694.859 405.649V348.315C694.859 344.028 695.04 339.697 694.859 335.413C694.856 335.352 694.859 335.29 694.859 335.228C694.859 333.298 691.859 333.294 691.859 335.228Z" fill="#1D1D1B"/>
<path d="M756.64 351.424V430.516C756.64 434.164 756.47 437.857 756.64 441.502C756.642 441.553 756.64 441.604 756.64 441.655C756.64 443.585 759.64 443.589 759.64 441.655V362.563C759.64 358.915 759.81 355.222 759.64 351.577C759.638 351.526 759.64 351.475 759.64 351.424C759.64 349.494 756.64 349.49 756.64 351.424Z" fill="#1D1D1B"/>
<path d="M821.422 357.74V441.655C821.422 443.585 824.422 443.589 824.422 441.655V357.74C824.422 355.81 821.422 355.806 821.422 357.74Z" fill="#1D1D1B"/>
<path d="M886.204 351.424V430.516C886.204 434.164 886.034 437.857 886.204 441.502C886.206 441.553 886.204 441.604 886.204 441.655C886.204 443.585 889.204 443.589 889.204 441.655V362.563C889.204 358.915 889.374 355.222 889.204 351.577C889.202 351.526 889.204 351.475 889.204 351.424C889.204 349.494 886.204 349.49 886.204 351.424Z" fill="#1D1D1B"/>
<path d="M950.985 335.228V428.567C950.985 432.854 950.804 437.185 950.985 441.469C950.988 441.53 950.985 441.592 950.985 441.654C950.985 443.584 953.985 443.588 953.985 441.654V431.03C953.985 422.57 953.985 414.109 953.985 405.649V348.315C953.985 344.028 954.166 339.697 953.985 335.413C953.982 335.352 953.985 335.29 953.985 335.228C953.985 333.298 950.985 333.294 950.985 335.228Z" fill="#1D1D1B"/>
<path d="M1015.77 305.421V351.536V390.854C1015.77 390.854 1015.77 413.577 1015.77 424.939C1015.77 430.418 1015.57 435.938 1015.77 441.414C1015.77 441.494 1015.77 441.574 1015.77 441.654C1015.77 443.584 1018.77 443.588 1018.77 441.654V322.135C1018.77 316.656 1018.96 311.136 1018.77 305.66C1018.76 305.58 1018.77 305.5 1018.77 305.42C1018.77 303.49 1015.77 303.486 1015.77 305.42V305.421Z" fill="#1D1D1B"/>
<path d="M1080.55 261.817V322.613V348.49C1080.55 348.49 1080.55 365.906 1080.55 374.615V434.36C1080.55 436.686 1080.48 439.023 1080.55 441.348C1080.55 441.45 1080.55 441.553 1080.55 441.656C1080.55 443.586 1083.55 443.59 1083.55 441.656V436.843C1083.55 432.477 1083.55 428.111 1083.55 423.745V380.86C1083.55 372.234 1083.55 363.609 1083.55 354.983C1083.55 346.357 1083.55 337.567 1083.55 328.858V269.113C1083.55 266.787 1083.61 264.45 1083.55 262.125C1083.55 262.023 1083.55 261.92 1083.55 261.817C1083.55 259.887 1080.55 259.883 1080.55 261.817Z" fill="#1D1D1B"/>
<path d="M314.738 409.273V437.625V441.654C314.738 443.584 317.738 443.588 317.738 441.654V409.272C317.738 407.342 314.738 407.338 314.738 409.272V409.273Z" fill="#1D1D1B"/>
<path d="M379.519 365.883V441.655C379.519 443.585 382.519 443.589 382.519 441.655V365.883C382.519 363.953 379.519 363.949 379.519 365.883Z" fill="#1D1D1B"/>
<path d="M444.301 297.074V311.539V346.008V387.796V423.906C444.301 429.727 444.1 435.588 444.301 441.406C444.304 441.489 444.301 441.573 444.301 441.656C444.301 443.586 447.301 443.59 447.301 441.656V427.191C447.301 415.701 447.301 404.212 447.301 392.722C447.301 381.232 447.301 364.863 447.301 350.934V314.824C447.301 309.003 447.502 303.142 447.301 297.324C447.298 297.241 447.301 297.157 447.301 297.074C447.301 295.144 444.301 295.14 444.301 297.074Z" fill="#1D1D1B"/>
<path d="M1325.75 409.273V441.655C1325.75 443.585 1328.75 443.589 1328.75 441.655V409.273C1328.75 407.343 1325.75 407.339 1325.75 409.273Z" fill="#1D1D1B"/>
<path d="M1260.97 365.883V441.655C1260.97 443.585 1263.97 443.589 1263.97 441.655V365.883C1263.97 363.953 1260.97 363.949 1260.97 365.883Z" fill="#1D1D1B"/>
<path d="M1196.19 297.074V423.906C1196.19 429.727 1195.99 435.588 1196.19 441.406C1196.19 441.489 1196.19 441.573 1196.19 441.656C1196.19 443.586 1199.19 443.59 1199.19 441.656V314.824C1199.19 309.003 1199.39 303.142 1199.19 297.324C1199.18 297.241 1199.19 297.157 1199.19 297.074C1199.19 295.144 1196.19 295.14 1196.19 297.074Z" fill="#1D1D1B"/>
<path d="M1533.18 466.722C1532.49 464.127 1531.8 461.532 1531.12 458.938C1529.26 451.937 1527.41 444.936 1525.56 437.936C1522.8 427.518 1520.05 417.1 1517.29 406.682C1513.95 394.056 1510.61 381.43 1507.26 368.805C1503.58 354.886 1499.9 340.966 1496.21 327.047C1492.53 313.128 1488.83 299.132 1485.13 285.174C1481.66 272.075 1478.2 258.975 1474.73 245.876C1471.82 234.88 1468.91 223.883 1466 212.887C1463.9 204.929 1461.79 196.972 1459.68 189.014C1458.69 185.275 1457.77 181.508 1456.71 177.788C1456.67 177.627 1456.63 177.464 1456.58 177.302C1455.83 174.447 1451.55 174.444 1450.8 177.302C1450.11 179.897 1449.42 182.492 1448.74 185.086C1446.88 192.087 1445.03 199.088 1443.18 206.088C1440.42 216.506 1437.67 226.924 1434.91 237.342C1431.57 249.968 1428.23 262.594 1424.88 275.219C1421.2 289.138 1417.52 303.058 1413.83 316.977C1410.15 330.896 1406.45 344.892 1402.75 358.85C1399.28 371.949 1395.82 385.049 1392.35 398.148C1389.44 409.144 1386.53 420.141 1383.62 431.137C1381.52 439.095 1379.41 447.052 1377.3 455.01C1376.31 458.75 1375.27 462.481 1374.33 466.236C1374.29 466.398 1374.25 466.56 1374.2 466.722C1373.21 470.458 1379 472.052 1379.99 468.317C1380.68 465.722 1381.36 463.127 1382.05 460.533C1383.9 453.532 1385.75 446.531 1387.61 439.531C1390.36 429.113 1393.12 418.695 1395.88 408.277C1399.22 395.651 1402.56 383.025 1405.9 370.4C1409.59 356.481 1413.27 342.561 1416.95 328.642C1420.65 314.684 1424.34 300.727 1428.04 286.769C1431.5 273.67 1434.97 260.57 1438.44 247.471C1441.35 236.475 1444.26 225.478 1447.17 214.482C1449.27 206.524 1451.38 198.567 1453.48 190.609C1454.47 186.877 1455.61 183.151 1456.45 179.383C1456.49 179.22 1456.54 179.059 1456.58 178.897H1450.8C1451.48 181.492 1452.17 184.087 1452.86 186.681C1454.71 193.682 1456.56 200.683 1458.42 207.683C1461.17 218.101 1463.93 228.519 1466.69 238.937C1470.03 251.563 1473.37 264.189 1476.71 276.814C1480.39 290.733 1484.08 304.653 1487.76 318.572C1491.45 332.491 1495.15 346.487 1498.84 360.445C1502.31 373.544 1505.78 386.644 1509.24 399.743C1512.15 410.739 1515.06 421.736 1517.97 432.732C1520.08 440.69 1522.19 448.647 1524.29 456.605C1525.28 460.345 1526.21 464.109 1527.26 467.831C1527.31 467.992 1527.35 468.155 1527.39 468.317C1528.38 472.046 1534.17 470.465 1533.18 466.722V466.722Z" fill="#1D1D1B"/>
<path d="M1617.91 195.818C1617.89 213.104 1615.21 230.28 1609.87 246.725C1604.75 262.502 1597.17 277.433 1587.57 290.96C1578.12 304.285 1566.58 316.253 1553.61 326.185C1540.48 336.23 1525.83 344.351 1510.31 350.028C1494.19 355.923 1477.2 359.279 1460.04 359.92C1442.76 360.566 1425.45 358.546 1408.8 353.829C1392.72 349.271 1377.42 342.233 1363.45 333.048C1349.73 324.027 1337.42 312.919 1326.95 300.276C1316.47 287.622 1307.85 273.274 1301.65 258.055C1295.25 242.334 1291.25 225.627 1289.96 208.699C1288.63 191.318 1289.99 173.764 1294.13 156.827C1298.09 140.605 1304.51 125.069 1313.17 110.788C1321.73 96.6679 1332.4 83.9039 1344.74 72.9339C1357.08 61.9639 1371.04 52.9389 1386.05 46.1159C1401.35 39.1539 1417.87 34.5779 1434.58 32.6789C1451.85 30.7159 1469.45 31.3939 1486.48 34.8669C1502.97 38.2269 1518.89 44.1029 1533.58 52.3049C1547.94 60.3259 1561.04 70.4719 1572.42 82.3619C1583.85 94.3169 1593.43 107.971 1600.82 122.775C1608.33 137.827 1613.43 154.054 1616.02 170.671C1617.31 178.986 1617.9 187.409 1617.91 195.821C1617.92 199.681 1623.92 199.688 1623.91 195.821C1623.89 178.039 1621.15 160.237 1615.66 143.319C1610.35 126.993 1602.58 111.459 1592.63 97.4719C1582.67 83.4849 1570.64 71.0189 1556.98 60.5409C1543.38 50.1029 1528.21 41.8119 1512.11 35.9039C1495.52 29.8109 1477.94 26.4149 1460.28 25.7289C1442.42 25.0349 1424.4 27.1529 1407.21 32.0259C1390.66 36.7159 1374.79 43.9599 1360.42 53.4119C1346.16 62.7889 1333.28 74.2849 1322.43 87.4609C1311.46 100.777 1302.58 115.622 1296.03 131.579C1289.35 147.861 1285.34 165.17 1283.98 182.711C1282.59 200.603 1284.05 218.75 1288.29 236.19C1292.35 252.956 1299.05 269.128 1307.99 283.882C1316.83 298.476 1327.89 311.773 1340.66 323.096C1353.43 334.419 1367.86 343.863 1383.42 350.89C1399.52 358.16 1416.58 362.864 1434.12 364.91C1452 366.996 1470.21 366.178 1487.85 362.606C1504.83 359.169 1521.28 353.048 1536.41 344.626C1551.33 336.322 1565.02 325.718 1576.81 313.365C1588.6 301.012 1598.51 286.948 1606.1 271.698C1613.86 256.1 1619.24 239.338 1621.87 222.114C1623.2 213.41 1623.9 204.628 1623.91 195.822C1623.91 191.961 1617.91 191.955 1617.91 195.822L1617.91 195.818Z" fill="#1D1D1B"/>
<path d="M1453.31 222.265C1472.37 222.265 1487.81 206.818 1487.81 187.762C1487.81 168.707 1472.37 153.259 1453.31 153.259C1434.26 153.259 1418.81 168.707 1418.81 187.762C1418.81 206.818 1434.26 222.265 1453.31 222.265Z" fill="#E6967C"/>
<path d="M1620.8 182.662H1649.65V191.628C1649.65 199.589 1643.19 206.052 1635.23 206.052C1627.27 206.052 1620.8 199.589 1620.8 191.628V182.662Z" fill="#7AC8DA"/>
<path d="M1635.23 203.052C1629.6 203.052 1624.54 198.645 1623.89 193.188C1623.68 191.411 1623.8 189.55 1623.8 187.766V182.662L1620.8 185.662H1649.65L1646.65 182.662C1646.65 186.078 1646.94 189.615 1646.59 193.017C1646.49 193.952 1645.98 195.711 1645.51 196.625C1644.74 198.151 1644.1 199.002 1642.84 200.156C1640.8 202.022 1638.05 203.018 1635.23 203.052C1631.37 203.098 1631.36 209.098 1635.23 209.052C1643.2 208.957 1650.5 203.399 1652.22 195.498C1653.11 191.376 1652.65 186.851 1652.65 182.662C1652.65 181.04 1651.28 179.662 1649.65 179.662H1620.81C1619.18 179.662 1617.81 181.036 1617.81 182.662C1617.81 185.604 1617.79 188.546 1617.81 191.488C1617.85 197.421 1620.73 202.856 1625.65 206.178C1628.44 208.061 1631.87 209.052 1635.23 209.052C1639.09 209.052 1639.1 203.052 1635.23 203.052H1635.23Z" fill="#1D1D1B"/>
<path d="M1257.48 182.662H1286.33V191.628C1286.33 199.589 1279.87 206.052 1271.9 206.052C1263.94 206.052 1257.48 199.589 1257.48 191.628V182.662Z" fill="#7AC8DA"/>
<path d="M1271.9 203.052C1266.28 203.052 1261.22 198.645 1260.56 193.188C1260.35 191.411 1260.48 189.55 1260.48 187.766V182.662L1257.48 185.662H1286.33L1283.33 182.662C1283.33 186.078 1283.61 189.615 1283.26 193.017C1283.17 193.952 1282.65 195.711 1282.19 196.625C1281.41 198.151 1280.77 199.002 1279.51 200.156C1277.47 202.022 1274.72 203.018 1271.91 203.052C1268.05 203.098 1268.04 209.098 1271.91 209.052C1279.88 208.957 1287.18 203.399 1288.89 195.498C1289.79 191.376 1289.33 186.851 1289.33 182.662C1289.33 181.04 1287.96 179.662 1286.33 179.662H1257.48C1255.86 179.662 1254.48 181.036 1254.48 182.662C1254.48 185.604 1254.46 188.546 1254.48 191.488C1254.52 197.421 1257.41 202.856 1262.33 206.178C1265.11 208.061 1268.55 209.052 1271.91 209.052C1275.77 209.052 1275.77 203.052 1271.91 203.052H1271.9Z" fill="#1D1D1B"/>
<path d="M1453.57 26.3899C1445.61 26.3899 1439.14 19.9269 1439.14 11.9659V2.99989H1467.99V11.9659C1467.99 19.9269 1461.53 26.3899 1453.57 26.3899Z" fill="#7AC8DA"/>
<path d="M1439.14 5.99998H1464.38H1467.99C1466.99 4.99998 1465.99 3.99998 1464.99 2.99998V11.434C1464.99 15.282 1463.46 18.874 1460.52 21.055C1456.86 23.764 1452.08 24.136 1448.28 22.098C1444.42 20.033 1442.18 16.207 1442.14 11.887C1442.11 8.92498 1442.14 5.96198 1442.14 3.00098C1442.14 -0.860023 1436.14 -0.866024 1436.14 3.00098C1436.14 5.94298 1436.12 8.88498 1436.14 11.827C1436.18 17.711 1439.02 23.079 1443.85 26.426C1449.01 29.996 1455.88 30.243 1461.44 27.504C1467 24.765 1470.6 18.976 1470.96 12.839C1471.16 9.57698 1470.99 6.26798 1470.99 3.00098C1470.99 1.37898 1469.62 0.000976562 1467.99 0.000976562C1459.58 0.000976562 1451.17 0.000976562 1442.75 0.000976562H1439.14C1435.28 0.000976562 1435.28 6.00098 1439.14 6.00098L1439.14 5.99998Z" fill="#1D1D1B"/>
<path d="M1585.4 81.7061C1577.44 81.7061 1570.98 75.2431 1570.98 67.2821V58.3161H1599.83V67.2821C1599.83 75.2431 1593.36 81.7061 1585.4 81.7061V81.7061Z" fill="#7AC8DA"/>
<path d="M1570.98 61.3159H1596.21H1599.82C1598.82 60.3159 1597.82 59.3159 1596.82 58.3159V66.7499C1596.82 70.5979 1595.29 74.1899 1592.35 76.3709C1588.7 79.0799 1583.91 79.4519 1580.11 77.4139C1576.26 75.3489 1574.02 71.5229 1573.98 67.2029C1573.95 64.2409 1573.98 61.2779 1573.98 58.3169C1573.98 54.4559 1567.98 54.4499 1567.98 58.3169C1567.98 61.2589 1567.96 64.2009 1567.98 67.1429C1568.02 73.0269 1570.85 78.3949 1575.69 81.7419C1580.84 85.3119 1587.72 85.5589 1593.28 82.8199C1598.84 80.0809 1602.43 74.2919 1602.8 68.1549C1602.99 64.8929 1602.82 61.5839 1602.82 58.3169C1602.82 56.6949 1601.45 55.3169 1599.82 55.3169C1591.41 55.3169 1583 55.3169 1574.59 55.3169H1570.98C1567.12 55.3169 1567.11 61.3169 1570.98 61.3169L1570.98 61.3159Z" fill="#1D1D1B"/>
<path d="M1322.15 81.7061C1314.19 81.7061 1307.73 75.2431 1307.73 67.2821V58.3161H1336.58V67.2821C1336.58 75.2431 1330.12 81.7061 1322.15 81.7061V81.7061Z" fill="#7AC8DA"/>
<path d="M1307.73 61.3159H1332.96H1336.58C1335.58 60.3159 1334.58 59.3159 1333.58 58.3159V66.7499C1333.58 70.5979 1332.04 74.1899 1329.1 76.3709C1325.45 79.0799 1320.67 79.4519 1316.86 77.4139C1313.01 75.3489 1310.77 71.5229 1310.73 67.2029C1310.7 64.2409 1310.73 61.2779 1310.73 58.3169C1310.73 54.4559 1304.73 54.4499 1304.73 58.3169C1304.73 61.2589 1304.71 64.2009 1304.73 67.1429C1304.77 73.0269 1307.6 78.3949 1312.44 81.7419C1317.6 85.3119 1324.47 85.5589 1330.03 82.8199C1335.59 80.0809 1339.18 74.2919 1339.55 68.1549C1339.74 64.8929 1339.58 61.5839 1339.58 58.3169C1339.58 56.6949 1338.2 55.3169 1336.58 55.3169C1328.16 55.3169 1319.75 55.3169 1311.34 55.3169H1307.73C1303.87 55.3169 1303.86 61.3169 1307.73 61.3169L1307.73 61.3159Z" fill="#1D1D1B"/>
<path d="M1585.4 338.99C1577.44 338.99 1570.98 332.527 1570.98 324.566V315.6H1599.83V324.566C1599.83 332.527 1593.36 338.99 1585.4 338.99Z" fill="#7AC8DA"/>
<path d="M1570.98 318.6H1596.21H1599.82L1596.82 315.6V324.034C1596.82 327.882 1595.29 331.474 1592.35 333.655C1588.7 336.364 1583.91 336.736 1580.11 334.698C1576.26 332.633 1574.02 328.807 1573.98 324.487C1573.95 321.525 1573.98 318.562 1573.98 315.601C1573.98 311.74 1567.98 311.734 1567.98 315.601C1567.98 318.543 1567.96 321.485 1567.98 324.427C1568.02 330.311 1570.85 335.679 1575.69 339.026C1580.84 342.596 1587.72 342.843 1593.28 340.104C1598.84 337.365 1602.43 331.576 1602.8 325.439C1602.99 322.177 1602.82 318.868 1602.82 315.601C1602.82 313.979 1601.45 312.601 1599.82 312.601C1591.41 312.601 1583 312.601 1574.59 312.601C1573.39 312.601 1572.18 312.601 1570.98 312.601C1567.12 312.601 1567.11 318.601 1570.98 318.601L1570.98 318.6Z" fill="#1D1D1B"/>
<path d="M1322.15 338.99C1314.19 338.99 1307.73 332.527 1307.73 324.566V315.6H1336.58V324.566C1336.58 332.527 1330.12 338.99 1322.15 338.99Z" fill="#7AC8DA"/>
<path d="M1307.73 318.6H1332.96H1336.58L1333.58 315.6V324.034C1333.58 327.882 1332.04 331.474 1329.1 333.655C1325.45 336.364 1320.67 336.736 1316.86 334.698C1313.01 332.633 1310.77 328.807 1310.73 324.487C1310.7 321.525 1310.73 318.562 1310.73 315.601C1310.73 311.74 1304.73 311.734 1304.73 315.601C1304.73 318.543 1304.71 321.485 1304.73 324.427C1304.77 330.311 1307.6 335.679 1312.44 339.026C1317.6 342.596 1324.47 342.843 1330.03 340.104C1335.59 337.365 1339.18 331.576 1339.55 325.439C1339.74 322.177 1339.58 318.868 1339.58 315.601C1339.58 313.979 1338.2 312.601 1336.58 312.601C1328.16 312.601 1319.75 312.601 1311.34 312.601C1310.14 312.601 1308.93 312.601 1307.73 312.601C1303.87 312.601 1303.86 318.601 1307.73 318.601L1307.73 318.6Z" fill="#1D1D1B"/>
<path d="M429.9 64.737C426.332 64.737 422.951 65.527 419.914 66.934C415.567 52.376 402.081 41.761 386.109 41.761C374.741 41.761 364.636 47.143 358.183 55.492C355.814 54.864 353.327 54.525 350.761 54.525C334.8 54.525 321.861 67.464 321.861 83.425C321.861 99.386 334.8 112.325 350.761 112.325H429.9C443.041 112.325 453.694 101.672 453.694 88.531C453.694 75.39 443.041 64.737 429.9 64.737Z" fill="white"/>
<path d="M429.9 61.7369C425.873 61.7739 422.058 62.6879 418.399 64.3439L422.806 66.1369C419.77 56.1529 412.72 47.5389 403.349 42.8619C393.13 37.7619 381.13 37.4789 370.664 42.0299C364.96 44.5109 359.889 48.4709 356.061 53.3699L358.98 52.5979C348.734 49.9689 337.917 52.4549 329.881 59.3169C322.651 65.4919 318.545 74.9879 318.879 84.4759C319.221 94.1989 324.019 103.184 331.759 109.026C335.386 111.763 339.684 113.719 344.138 114.63C347.814 115.382 351.5 115.324 355.226 115.324H424.514C428.074 115.324 431.643 115.469 435.16 114.799C439.795 113.916 444.111 111.68 447.654 108.589C455.055 102.134 458.183 91.7869 455.958 82.2759C453.774 72.9369 446.337 65.3089 437.13 62.7219C434.789 62.0639 432.328 61.7529 429.899 61.7349C426.037 61.7069 426.033 67.7069 429.899 67.7349C437.889 67.7929 445.108 72.2869 448.684 79.5789C450.384 83.0439 451.047 87.1749 450.533 91.3039C450.103 94.7529 448.373 98.8419 446.138 101.543C445.479 102.339 444.771 103.094 444.015 103.799C443.202 104.558 442.742 104.938 441.957 105.484C441.104 106.078 440.212 106.615 439.289 107.092C438.258 107.624 437.895 107.783 436.811 108.154C433.419 109.315 430.554 109.324 426.954 109.324H404.265C390.237 109.324 376.21 109.324 362.182 109.324C355.265 109.324 348.236 110.036 341.854 107.762C338.358 106.516 334.906 104.258 332.215 101.506C329.547 98.7769 327.383 95.2679 326.204 91.6979C323.598 83.8089 324.818 75.3749 329.57 68.5099C333.966 62.1599 341.605 57.9279 349.359 57.5579C352.084 57.4279 354.744 57.7069 357.384 58.3839C358.326 58.6259 359.659 58.4369 360.303 57.6119C366.465 49.7239 375.683 44.8689 385.707 44.7619C394.726 44.6659 403.357 48.3269 409.573 54.8769C413.011 58.4999 415.568 62.9559 417.02 67.7309C417.628 69.7299 419.651 70.3279 421.427 69.5239C424.091 68.3179 426.988 67.7629 429.899 67.7359C433.758 67.6999 433.767 61.6999 429.899 61.7359L429.9 61.7369Z" fill="#1D1D1B"/>
<path d="M1774.69 535.828C1543.56 535.77 1312.43 535.735 1081.31 535.713C851.508 535.692 621.711 535.684 391.913 535.681C262.241 535.679 132.57 535.679 2.898 535.679C-0.963 535.679 -0.969 541.679 2.898 541.679C233.916 541.679 464.934 541.679 695.953 541.688C925.781 541.697 1155.61 541.714 1385.44 541.75C1515.19 541.77 1644.94 541.795 1774.69 541.828C1778.55 541.828 1778.56 535.829 1774.69 535.828Z" fill="#1D1D1B"/>
<path d="M254.268 465.193V65.1919L109.268 142.192V538.827H254.269L254.268 465.193Z" fill="#7AC8DA"/>
<path d="M254.269 541.827H109.268C107.611 541.827 106.268 540.484 106.268 538.827V142.192C106.268 141.082 106.881 140.063 107.861 139.543L252.861 62.542C253.79 62.048 254.911 62.078 255.814 62.62C256.716 63.162 257.268 64.139 257.268 65.191V465.192V538.827C257.268 539.623 256.952 540.386 256.39 540.948C255.827 541.511 255.064 541.827 254.269 541.827V541.827ZM112.269 535.827H251.269V465.192V70.182L112.268 143.996V535.828L112.269 535.827Z" fill="#1D1D1B"/>
<path d="M163.944 447.281V170.529H391.349V538.827H163.944V447.281Z" fill="#C1CBDF"/>
<path d="M391.349 541.827H163.944C162.287 541.827 160.944 540.484 160.944 538.827V170.529C160.944 168.872 162.287 167.529 163.944 167.529H391.35C393.007 167.529 394.35 168.872 394.35 170.529V538.827C394.35 540.484 393.007 541.827 391.35 541.827H391.349ZM166.943 535.827H388.349V173.529H166.944V535.827H166.943Z" fill="#1D1D1B"/>
<path d="M194.268 203.84H362.47V219.433H194.268V203.84Z" fill="white"/>
<path d="M194.268 242.302H362.47V257.895H194.268V242.302Z" fill="white"/>
<path d="M194.268 280.765H362.47V296.358H194.268V280.765Z" fill="white"/>
<path d="M194.268 319.228H362.47V334.821H194.268V319.228Z" fill="white"/>
<path d="M1249.57 538.828H1687.63V446.923H1685.76C1681.29 422.76 1660.13 404.454 1634.67 404.454C1611.38 404.454 1591.67 419.779 1585.06 440.895C1578.46 419.779 1558.74 404.454 1535.45 404.454C1512.16 404.454 1492.45 419.779 1485.84 440.895C1479.24 419.778 1459.52 404.454 1436.23 404.454C1415.26 404.454 1397.2 416.887 1388.98 434.78C1380.77 416.887 1362.71 404.454 1341.74 404.454C1313.03 404.454 1289.76 427.723 1289.76 456.427C1289.76 458.25 1289.86 460.051 1290.04 461.826C1263.66 464.32 1243.02 486.524 1243.02 513.558C1243.02 522.535 1245.3 530.98 1249.3 538.349C1249.39 538.511 1249.48 538.668 1249.57 538.828V538.828Z" fill="#A1BB77"/>
<path d="M1249.57 541.828H1669.82C1675.51 541.828 1681.21 541.935 1686.91 541.828C1687.15 541.823 1687.39 541.828 1687.63 541.828C1689.25 541.828 1690.63 540.454 1690.63 538.828V507.707C1690.63 491.25 1690.63 474.793 1690.63 458.336V446.924C1690.63 445.302 1689.26 443.924 1687.63 443.924H1685.76L1688.65 446.126C1685.1 427.507 1671.9 411.916 1654.27 405.069C1636.01 397.974 1614.94 401.658 1599.81 413.939C1591.49 420.695 1585.42 429.916 1582.17 440.099H1587.95C1582.4 422.721 1568.53 408.857 1550.98 403.68C1533.03 398.385 1513.28 402.846 1499.2 415.109C1491.58 421.749 1486.02 430.493 1482.95 440.099H1488.74C1483.53 423.79 1471.07 410.673 1454.99 404.75C1438.44 398.654 1419.17 401.184 1404.76 411.369C1396.86 416.958 1390.49 424.487 1386.39 433.267H1391.58C1382.72 414.286 1363.36 401.724 1342.41 401.46C1322.89 401.213 1304.29 411.715 1294.37 428.514C1288.46 438.52 1285.94 450.276 1287.04 461.827L1290.04 458.827C1276.49 460.189 1263.75 466.277 1254.52 476.369C1245.41 486.319 1240.18 499.427 1240.03 512.926C1239.92 522.442 1242.29 532.049 1246.99 540.343C1248.89 543.704 1254.07 540.683 1252.17 537.315C1245.3 525.183 1244.24 510.283 1248.82 497.182C1252.71 486.081 1260.77 476.638 1270.99 470.868C1276.84 467.569 1283.36 465.499 1290.04 464.827C1291.54 464.677 1293.21 463.57 1293.04 461.827C1291.32 443.822 1299.22 425.944 1314.38 415.8C1329.68 405.552 1349.95 404.7 1365.98 413.871C1374.99 419.03 1382.02 426.904 1386.4 436.296C1387.31 438.258 1390.66 438.258 1391.58 436.296C1398.23 422.02 1411.12 411.552 1426.61 408.395C1441.89 405.28 1458.2 409.929 1469.59 420.569C1475.78 426.356 1480.37 433.623 1482.95 441.695C1483.86 444.542 1487.83 444.545 1488.74 441.695C1493.68 426.226 1506.19 413.888 1521.82 409.378C1537.57 404.834 1555.07 408.566 1567.46 419.352C1574.32 425.32 1579.41 433.036 1582.17 441.694C1583.08 444.541 1587.05 444.544 1587.96 441.694C1593.17 425.364 1606.76 412.697 1623.45 408.744C1640.34 404.747 1658.39 410.253 1670.29 422.829C1676.83 429.741 1681.09 438.398 1682.87 447.721C1683.11 448.999 1684.52 449.923 1685.76 449.923H1687.63L1684.63 446.923V478.044V527.415V538.827L1687.63 535.827H1267.39C1261.7 535.827 1255.99 535.72 1250.3 535.827C1250.06 535.832 1249.82 535.827 1249.57 535.827C1245.71 535.827 1245.71 541.827 1249.57 541.827L1249.57 541.828Z" fill="#1D1D1B"/>
<path d="M1687.88 435.313L1651.14 522.029L1687.88 514.68L1724.63 522.029L1687.88 435.313Z" fill="#649A70"/>
<path d="M1687.88 396.26L1656.39 470.587L1687.88 464.288L1719.38 470.587L1687.88 396.26Z" fill="#649A70"/>
<path d="M1687.88 360.461L1659.01 428.595L1687.88 422.82L1716.75 428.595L1687.88 360.461Z" fill="#649A70"/>
<path d="M1687.88 327.917L1661.64 389.856L1687.88 384.607L1714.13 389.856L1687.88 327.917Z" fill="#649A70"/>
</g>
<defs>
<clipPath id="clip0_546_3395">
<rect width="1777.59" height="541.875" fill="white"/>
</clipPath>
</defs>
</svg>
