<svg width="1778" height="542" viewBox="0 0 1778 542" fill="none" xmlns="http://www.w3.org/2000/svg">
<g clip-path="url(#clip0_546_3395)">
<path d="M1533.18 466.722C1532.49 464.127 1531.8 461.532 1531.12 458.938C1529.26 451.937 1527.41 444.936 1525.56 437.936C1522.8 427.518 1520.05 417.1 1517.29 406.682C1513.95 394.056 1510.61 381.43 1507.26 368.805C1503.58 354.886 1499.9 340.966 1496.21 327.047C1492.53 313.128 1488.83 299.132 1485.13 285.174C1481.66 272.075 1478.2 258.975 1474.73 245.876C1471.82 234.88 1468.91 223.883 1466 212.887C1463.9 204.929 1461.79 196.972 1459.68 189.014C1458.69 185.275 1457.77 181.508 1456.71 177.788C1456.67 177.627 1456.63 177.464 1456.58 177.302C1455.83 174.447 1451.55 174.444 1450.8 177.302C1450.11 179.897 1449.42 182.492 1448.74 185.086C1446.88 192.087 1445.03 199.088 1443.18 206.088C1440.42 216.506 1437.67 226.924 1434.91 237.342C1431.57 249.968 1428.23 262.594 1424.88 275.219C1421.2 289.138 1417.52 303.058 1413.83 316.977C1410.15 330.896 1406.45 344.892 1402.75 358.85C1399.28 371.949 1395.82 385.049 1392.35 398.148C1389.44 409.144 1386.53 420.141 1383.62 431.137C1381.52 439.095 1379.41 447.052 1377.3 455.01C1376.31 458.75 1375.27 462.481 1374.33 466.236C1374.29 466.398 1374.25 466.56 1374.2 466.722C1373.21 470.458 1379 472.052 1379.99 468.317C1380.68 465.722 1381.36 463.127 1382.05 460.533C1383.9 453.532 1385.75 446.531 1387.61 439.531C1390.36 429.113 1393.12 418.695 1395.88 408.277C1399.22 395.651 1402.56 383.025 1405.9 370.4C1409.59 356.481 1413.27 342.561 1416.95 328.642C1420.65 314.684 1424.34 300.727 1428.04 286.769C1431.5 273.67 1434.97 260.57 1438.44 247.471C1441.35 236.475 1444.26 225.478 1447.17 214.482C1449.27 206.524 1451.38 198.567 1453.48 190.609C1454.47 186.877 1455.61 183.151 1456.45 179.383C1456.49 179.22 1456.54 179.059 1456.58 178.897H1450.8C1451.48 181.492 1452.17 184.087 1452.86 186.681C1454.71 193.682 1456.56 200.683 1458.42 207.683C1461.17 218.101 1463.93 228.519 1466.69 238.937C1470.03 251.563 1473.37 264.189 1476.71 276.814C1480.39 290.733 1484.08 304.653 1487.76 318.572C1491.45 332.491 1495.15 346.487 1498.84 360.445C1502.31 373.544 1505.78 386.644 1509.24 399.743C1512.15 410.739 1515.06 421.736 1517.97 432.732C1520.08 440.69 1522.19 448.647 1524.29 456.605C1525.28 460.345 1526.21 464.109 1527.26 467.831C1527.31 467.992 1527.35 468.155 1527.39 468.317C1528.38 472.046 1534.17 470.465 1533.18 466.722V466.722Z" fill="#1D1D1B"/>
<path d="M1617.91 195.818C1617.89 213.104 1615.21 230.28 1609.87 246.725C1604.75 262.502 1597.17 277.433 1587.57 290.96C1578.12 304.285 1566.58 316.253 1553.61 326.185C1540.48 336.23 1525.83 344.351 1510.31 350.028C1494.19 355.923 1477.2 359.279 1460.04 359.92C1442.76 360.566 1425.45 358.546 1408.8 353.829C1392.72 349.271 1377.42 342.233 1363.45 333.048C1349.73 324.027 1337.42 312.919 1326.95 300.276C1316.47 287.622 1307.85 273.274 1301.65 258.055C1295.25 242.334 1291.25 225.627 1289.96 208.699C1288.63 191.318 1289.99 173.764 1294.13 156.827C1298.09 140.605 1304.51 125.069 1313.17 110.788C1321.73 96.6682 1332.4 83.9042 1344.74 72.9342C1357.08 61.9642 1371.04 52.9392 1386.05 46.1162C1401.35 39.1542 1417.87 34.5782 1434.58 32.6792C1451.85 30.7162 1469.45 31.3942 1486.48 34.8672C1502.97 38.2272 1518.89 44.1032 1533.58 52.3052C1547.94 60.3262 1561.04 70.4722 1572.42 82.3622C1583.85 94.3172 1593.43 107.971 1600.82 122.775C1608.33 137.827 1613.43 154.054 1616.02 170.671C1617.31 178.986 1617.9 187.409 1617.91 195.821C1617.92 199.681 1623.92 199.688 1623.91 195.821C1623.89 178.039 1621.15 160.237 1615.66 143.319C1610.35 126.993 1602.58 111.459 1592.63 97.4722C1582.67 83.4852 1570.64 71.0192 1556.98 60.5412C1543.38 50.1032 1528.21 41.8122 1512.11 35.9042C1495.52 29.8112 1477.94 26.4152 1460.28 25.7292C1442.42 25.0352 1424.4 27.1532 1407.21 32.0262C1390.66 36.7162 1374.79 43.9602 1360.42 53.4122C1346.16 62.7892 1333.28 74.2852 1322.43 87.4612C1311.46 100.777 1302.58 115.622 1296.03 131.579C1289.35 147.861 1285.34 165.17 1283.98 182.711C1282.59 200.603 1284.05 218.75 1288.29 236.19C1292.35 252.956 1299.05 269.128 1307.99 283.882C1316.83 298.476 1327.89 311.773 1340.66 323.096C1353.43 334.419 1367.86 343.863 1383.42 350.89C1399.52 358.16 1416.58 362.864 1434.12 364.91C1452 366.996 1470.21 366.178 1487.85 362.606C1504.83 359.169 1521.28 353.048 1536.41 344.626C1551.33 336.322 1565.02 325.718 1576.81 313.365C1588.6 301.012 1598.51 286.948 1606.1 271.698C1613.86 256.1 1619.24 239.338 1621.87 222.114C1623.2 213.41 1623.9 204.628 1623.91 195.822C1623.91 191.961 1617.91 191.955 1617.91 195.822L1617.91 195.818Z" fill="#1D1D1B"/>
<path d="M1453.31 222.265C1472.37 222.265 1487.81 206.817 1487.81 187.762C1487.81 168.706 1472.37 153.259 1453.31 153.259C1434.26 153.259 1418.81 168.706 1418.81 187.762C1418.81 206.817 1434.26 222.265 1453.31 222.265Z" fill="#E6967C"/>
<path d="M1620.8 182.662H1649.65V191.628C1649.65 199.589 1643.19 206.052 1635.23 206.052C1627.27 206.052 1620.8 199.589 1620.8 191.628V182.662Z" fill="#7AC8DA"/>
<path d="M1635.23 203.052C1629.6 203.052 1624.54 198.645 1623.89 193.188C1623.68 191.411 1623.8 189.55 1623.8 187.766V182.662L1620.8 185.662H1649.65L1646.65 182.662C1646.65 186.078 1646.94 189.615 1646.59 193.017C1646.49 193.952 1645.98 195.711 1645.51 196.625C1644.74 198.151 1644.1 199.002 1642.84 200.156C1640.8 202.022 1638.05 203.018 1635.23 203.052C1631.37 203.098 1631.36 209.098 1635.23 209.052C1643.2 208.957 1650.5 203.399 1652.22 195.498C1653.11 191.376 1652.65 186.851 1652.65 182.662C1652.65 181.04 1651.28 179.662 1649.65 179.662H1620.81C1619.18 179.662 1617.81 181.036 1617.81 182.662C1617.81 185.604 1617.79 188.546 1617.81 191.488C1617.85 197.421 1620.73 202.856 1625.65 206.178C1628.44 208.061 1631.87 209.052 1635.23 209.052C1639.09 209.052 1639.1 203.052 1635.23 203.052H1635.23Z" fill="#1D1D1B"/>
<path d="M1257.48 182.662H1286.33V191.628C1286.33 199.589 1279.87 206.052 1271.9 206.052C1263.94 206.052 1257.48 199.589 1257.48 191.628V182.662Z" fill="#7AC8DA"/>
<path d="M1271.9 203.052C1266.28 203.052 1261.22 198.645 1260.56 193.188C1260.35 191.411 1260.48 189.55 1260.48 187.766V182.662L1257.48 185.662H1286.33L1283.33 182.662C1283.33 186.078 1283.61 189.615 1283.26 193.017C1283.17 193.952 1282.65 195.711 1282.19 196.625C1281.41 198.151 1280.77 199.002 1279.51 200.156C1277.47 202.022 1274.72 203.018 1271.91 203.052C1268.05 203.098 1268.04 209.098 1271.91 209.052C1279.88 208.957 1287.18 203.399 1288.89 195.498C1289.79 191.376 1289.33 186.851 1289.33 182.662C1289.33 181.04 1287.96 179.662 1286.33 179.662H1257.48C1255.86 179.662 1254.48 181.036 1254.48 182.662C1254.48 185.604 1254.46 188.546 1254.48 191.488C1254.52 197.421 1257.41 202.856 1262.33 206.178C1265.11 208.061 1268.55 209.052 1271.91 209.052C1275.77 209.052 1275.77 203.052 1271.91 203.052H1271.9Z" fill="#1D1D1B"/>
<path d="M1453.57 26.3901C1445.61 26.3901 1439.14 19.9271 1439.14 11.9661V3.00014H1467.99V11.9661C1467.99 19.9271 1461.53 26.3901 1453.57 26.3901Z" fill="#7AC8DA"/>
<path d="M1439.14 5.99998H1464.38H1467.99C1466.99 4.99998 1465.99 3.99998 1464.99 2.99998V11.434C1464.99 15.282 1463.46 18.874 1460.52 21.055C1456.86 23.764 1452.08 24.136 1448.28 22.098C1444.42 20.033 1442.18 16.207 1442.14 11.887C1442.11 8.92498 1442.14 5.96198 1442.14 3.00098C1442.14 -0.860023 1436.14 -0.866024 1436.14 3.00098C1436.14 5.94298 1436.12 8.88498 1436.14 11.827C1436.18 17.711 1439.02 23.079 1443.85 26.426C1449.01 29.996 1455.88 30.243 1461.44 27.504C1467 24.765 1470.6 18.976 1470.96 12.839C1471.16 9.57698 1470.99 6.26798 1470.99 3.00098C1470.99 1.37898 1469.62 0.000976562 1467.99 0.000976562C1459.58 0.000976562 1451.17 0.000976562 1442.75 0.000976562H1439.14C1435.28 0.000976562 1435.28 6.00098 1439.14 6.00098L1439.14 5.99998Z" fill="#1D1D1B"/>
<path d="M1585.4 81.7061C1577.44 81.7061 1570.98 75.2431 1570.98 67.2821V58.3161H1599.83V67.2821C1599.83 75.2431 1593.36 81.7061 1585.4 81.7061V81.7061Z" fill="#7AC8DA"/>
<path d="M1570.98 61.3159H1596.21H1599.82C1598.82 60.3159 1597.82 59.3159 1596.82 58.3159V66.7499C1596.82 70.5979 1595.29 74.1899 1592.35 76.3709C1588.7 79.0799 1583.91 79.4519 1580.11 77.4139C1576.26 75.3489 1574.02 71.5229 1573.98 67.2029C1573.95 64.2409 1573.98 61.2779 1573.98 58.3169C1573.98 54.4559 1567.98 54.4499 1567.98 58.3169C1567.98 61.2589 1567.96 64.2009 1567.98 67.1429C1568.02 73.0269 1570.85 78.3949 1575.69 81.7419C1580.84 85.3119 1587.72 85.5589 1593.28 82.8199C1598.84 80.0809 1602.43 74.2919 1602.8 68.1549C1602.99 64.8929 1602.82 61.5839 1602.82 58.3169C1602.82 56.6949 1601.45 55.3169 1599.82 55.3169C1591.41 55.3169 1583 55.3169 1574.59 55.3169H1570.98C1567.12 55.3169 1567.11 61.3169 1570.98 61.3169L1570.98 61.3159Z" fill="#1D1D1B"/>
<path d="M1322.15 81.7061C1314.19 81.7061 1307.73 75.2431 1307.73 67.2821V58.3161H1336.58V67.2821C1336.58 75.2431 1330.12 81.7061 1322.15 81.7061V81.7061Z" fill="#7AC8DA"/>
<path d="M1307.73 61.3159H1332.96H1336.58C1335.58 60.3159 1334.58 59.3159 1333.58 58.3159V66.7499C1333.58 70.5979 1332.04 74.1899 1329.1 76.3709C1325.45 79.0799 1320.67 79.4519 1316.86 77.4139C1313.01 75.3489 1310.77 71.5229 1310.73 67.2029C1310.7 64.2409 1310.73 61.2779 1310.73 58.3169C1310.73 54.4559 1304.73 54.4499 1304.73 58.3169C1304.73 61.2589 1304.71 64.2009 1304.73 67.1429C1304.77 73.0269 1307.6 78.3949 1312.44 81.7419C1317.6 85.3119 1324.47 85.5589 1330.03 82.8199C1335.59 80.0809 1339.18 74.2919 1339.55 68.1549C1339.74 64.8929 1339.58 61.5839 1339.58 58.3169C1339.58 56.6949 1338.2 55.3169 1336.58 55.3169C1328.16 55.3169 1319.75 55.3169 1311.34 55.3169H1307.73C1303.87 55.3169 1303.86 61.3169 1307.73 61.3169L1307.73 61.3159Z" fill="#1D1D1B"/>
<path d="M1585.4 338.99C1577.44 338.99 1570.98 332.527 1570.98 324.566V315.6H1599.83V324.566C1599.83 332.527 1593.36 338.99 1585.4 338.99Z" fill="#7AC8DA"/>
<path d="M1570.98 318.6H1596.21H1599.82L1596.82 315.6V324.034C1596.82 327.882 1595.29 331.474 1592.35 333.655C1588.7 336.364 1583.91 336.736 1580.11 334.698C1576.26 332.633 1574.02 328.807 1573.98 324.487C1573.95 321.525 1573.98 318.562 1573.98 315.601C1573.98 311.74 1567.98 311.734 1567.98 315.601C1567.98 318.543 1567.96 321.485 1567.98 324.427C1568.02 330.311 1570.85 335.679 1575.69 339.026C1580.84 342.596 1587.72 342.843 1593.28 340.104C1598.84 337.365 1602.43 331.576 1602.8 325.439C1602.99 322.177 1602.82 318.868 1602.82 315.601C1602.82 313.979 1601.45 312.601 1599.82 312.601C1591.41 312.601 1583 312.601 1574.59 312.601C1573.39 312.601 1572.18 312.601 1570.98 312.601C1567.12 312.601 1567.11 318.601 1570.98 318.601L1570.98 318.6Z" fill="#1D1D1B"/>
<path d="M1322.15 338.99C1314.19 338.99 1307.73 332.527 1307.73 324.566V315.6H1336.58V324.566C1336.58 332.527 1330.12 338.99 1322.15 338.99Z" fill="#7AC8DA"/>
<path d="M1307.73 318.6H1332.96H1336.58L1333.58 315.6V324.034C1333.58 327.882 1332.04 331.474 1329.1 333.655C1325.45 336.364 1320.67 336.736 1316.86 334.698C1313.01 332.633 1310.77 328.807 1310.73 324.487C1310.7 321.525 1310.73 318.562 1310.73 315.601C1310.73 311.74 1304.73 311.734 1304.73 315.601C1304.73 318.543 1304.71 321.485 1304.73 324.427C1304.77 330.311 1307.6 335.679 1312.44 339.026C1317.6 342.596 1324.47 342.843 1330.03 340.104C1335.59 337.365 1339.18 331.576 1339.55 325.439C1339.74 322.177 1339.58 318.868 1339.58 315.601C1339.58 313.979 1338.2 312.601 1336.58 312.601C1328.16 312.601 1319.75 312.601 1311.34 312.601C1310.14 312.601 1308.93 312.601 1307.73 312.601C1303.87 312.601 1303.86 318.601 1307.73 318.601L1307.73 318.6Z" fill="#1D1D1B"/>
<path d="M1774.69 535.828C1543.56 535.77 1312.43 535.735 1081.31 535.713C851.508 535.692 621.711 535.684 391.913 535.681C262.241 535.679 132.57 535.679 2.898 535.679C-0.963 535.679 -0.969 541.679 2.898 541.679C233.916 541.679 464.934 541.679 695.953 541.688C925.781 541.697 1155.61 541.714 1385.44 541.75C1515.19 541.77 1644.94 541.795 1774.69 541.828C1778.55 541.828 1778.56 535.829 1774.69 535.828Z" fill="#1D1D1B"/>
<path d="M1249.57 538.828H1687.63V446.923H1685.76C1681.29 422.76 1660.13 404.454 1634.67 404.454C1611.38 404.454 1591.67 419.779 1585.06 440.895C1578.46 419.779 1558.74 404.454 1535.45 404.454C1512.16 404.454 1492.45 419.779 1485.84 440.895C1479.24 419.778 1459.52 404.454 1436.23 404.454C1415.26 404.454 1397.2 416.887 1388.98 434.78C1380.77 416.887 1362.71 404.454 1341.74 404.454C1313.03 404.454 1289.76 427.723 1289.76 456.427C1289.76 458.25 1289.86 460.051 1290.04 461.826C1263.66 464.32 1243.02 486.524 1243.02 513.558C1243.02 522.535 1245.3 530.98 1249.3 538.349C1249.39 538.511 1249.48 538.668 1249.57 538.828Z" fill="#A1BB77" stroke="#1D1D1B" stroke-width="6" stroke-linejoin="round"/>
<path d="M1687.88 435.313L1651.14 522.029L1687.88 514.68L1724.63 522.029L1687.88 435.313Z" fill="#649A70"/>
<path d="M1687.88 396.26L1656.39 470.587L1687.88 464.288L1719.38 470.587L1687.88 396.26Z" fill="#649A70"/>
<path d="M1687.88 360.461L1659.01 428.595L1687.88 422.82L1716.75 428.595L1687.88 360.461Z" fill="#649A70"/>
<path d="M1687.88 327.917L1661.64 389.856L1687.88 384.607L1714.13 389.856L1687.88 327.917Z" fill="#649A70"/>
</g>
<defs>
<clipPath id="clip0_546_3395">
<rect width="1777.59" height="541.875" fill="white"/>
</clipPath>
</defs>
</svg>
