<svg width="1778" height="542" viewBox="0 0 1778 542" fill="none" xmlns="http://www.w3.org/2000/svg">
<g clip-path="url(#clip0_546_3471)">
<path d="M1774.69 535.828C1543.56 535.77 1312.43 535.735 1081.31 535.713C851.508 535.692 621.711 535.684 391.913 535.681C262.241 535.679 132.57 535.679 2.898 535.679C-0.963 535.679 -0.969 541.679 2.898 541.679C233.916 541.679 464.934 541.679 695.953 541.688C925.781 541.697 1155.61 541.714 1385.44 541.75C1515.19 541.77 1644.94 541.795 1774.69 541.828C1778.55 541.828 1778.56 535.829 1774.69 535.828Z" fill="#1D1D1B"/>
<path d="M254.268 465.193V65.1919L109.268 142.192V538.827H254.269L254.268 465.193Z" fill="#7AC8DA"/>
<path d="M254.269 541.827H109.268C107.611 541.827 106.268 540.484 106.268 538.827V142.192C106.268 141.082 106.881 140.063 107.861 139.543L252.861 62.542C253.79 62.048 254.911 62.078 255.814 62.62C256.716 63.162 257.268 64.139 257.268 65.191V465.192V538.827C257.268 539.623 256.952 540.386 256.39 540.948C255.827 541.511 255.064 541.827 254.269 541.827V541.827ZM112.269 535.827H251.269V465.192V70.182L112.268 143.996V535.828L112.269 535.827Z" fill="#1D1D1B"/>
<path d="M163.944 447.281V170.529H391.349V538.827H163.944V447.281Z" fill="#C1CBDF"/>
<path d="M391.349 541.827H163.944C162.287 541.827 160.944 540.484 160.944 538.827V170.529C160.944 168.872 162.287 167.529 163.944 167.529H391.35C393.007 167.529 394.35 168.872 394.35 170.529V538.827C394.35 540.484 393.007 541.827 391.35 541.827H391.349ZM166.943 535.827H388.349V173.529H166.944V535.827H166.943Z" fill="#1D1D1B"/>
<path d="M194.268 203.84H362.47V219.433H194.268V203.84Z" fill="white"/>
<path d="M194.268 242.302H362.47V257.895H194.268V242.302Z" fill="white"/>
<path d="M194.268 280.765H362.47V296.358H194.268V280.765Z" fill="white"/>
<path d="M194.268 319.228H362.47V334.821H194.268V319.228Z" fill="white"/>
</g>
<defs>
<clipPath id="clip0_546_3471">
<rect width="1777.59" height="541.875" fill="white"/>
</clipPath>
</defs>
</svg>
